<?xml version="1.0" encoding="UTF-8" standalone="no"?>
<svg viewBox="0 0 50 50"
 xmlns="http://www.w3.org/2000/svg" xmlns:xlink="http://www.w3.org/1999/xlink" version="1.2" baseProfile="tiny">
<title>Qt SVG Document</title>
<desc>Generated with Qt</desc>
<defs>
</defs>
<g fill="none" stroke="black" stroke-width="1" fill-rule="evenodd" stroke-linecap="square" stroke-linejoin="bevel" >

<g fill="none" stroke="#000000" stroke-opacity="1" stroke-width="1" stroke-linecap="square" stroke-linejoin="bevel" transform="matrix(1,0,0,1,0,0)"
font-family="Noto Sans" font-size="10" font-weight="400" font-style="normal" 
>
</g>

<g fill="#da0016" fill-opacity="0.480003" stroke="#da0016" stroke-opacity="0.720012" stroke-width="2.5025" stroke-linecap="square" stroke-linejoin="bevel" transform="matrix(1,0,0,1,2.5,2.5)"
font-family="Noto Sans" font-size="10" font-weight="400" font-style="normal" 
>
<path vector-effect="none" fill-rule="evenodd" d="M-1.25125,8.74875 C-1.25125,3.2259 3.2259,-1.25125 8.74875,-1.25125 L36.2512,-1.25125 C41.7741,-1.25125 46.2512,3.2259 46.2512,8.74875 L46.2512,36.2512 C46.2512,41.7741 41.7741,46.2512 36.2512,46.2512 L8.74875,46.2512 C3.2259,46.2512 -1.25125,41.7741 -1.25125,36.2512 L-1.25125,8.74875"/>
</g>

<g fill="none" stroke="#000000" stroke-opacity="1" stroke-width="1" stroke-linecap="square" stroke-linejoin="bevel" transform="matrix(1,0,0,1,0,0)"
font-family="Noto Sans" font-size="10" font-weight="400" font-style="normal" 
>
</g>

<g fill="none" stroke="#ffffff" stroke-opacity="1" stroke-width="1.001" stroke-linecap="square" stroke-linejoin="bevel" transform="matrix(2.5,0,0,2.5,2.5,2.5)"
font-family="Noto Sans" font-size="10" font-weight="400" font-style="normal" 
>
</g>

<g fill="none" stroke="#ffffff" stroke-opacity="1" stroke-width="1.001" stroke-linecap="round" stroke-linejoin="miter" stroke-miterlimit="2" transform="matrix(2.5,0,0,2.5,2.5,2.5)"
font-family="Noto Sans" font-size="10" font-weight="400" font-style="normal" 
>
</g>

<g fill="none" stroke="#ffffff" stroke-opacity="1" stroke-width="1.001" stroke-linecap="round" stroke-linejoin="miter" stroke-miterlimit="2" transform="matrix(2.5,0,0,2.5,2.5,2.5)"
font-family="Noto Sans" font-size="10" font-weight="400" font-style="normal" 
>
</g>

<g fill="none" stroke="#ffffff" stroke-opacity="1" stroke-width="1.2012" stroke-linecap="round" stroke-linejoin="miter" stroke-miterlimit="2" transform="matrix(2.5,0,0,2.5,2.5,2.5)"
font-family="Noto Sans" font-size="10" font-weight="400" font-style="normal" 
>
<polyline fill="none" vector-effect="none" points="4.4,4.4 13.6,13.6 " />
<polyline fill="none" vector-effect="none" points="13.6,4.4 4.4,13.6 " />
</g>

<g fill="none" stroke="#ffffff" stroke-opacity="1" stroke-width="1.001" stroke-linecap="square" stroke-linejoin="bevel" transform="matrix(2.5,0,0,2.5,2.5,2.5)"
font-family="Noto Sans" font-size="10" font-weight="400" font-style="normal" 
>
</g>

<g fill="none" stroke="#000000" stroke-opacity="1" stroke-width="1" stroke-linecap="square" stroke-linejoin="bevel" transform="matrix(1,0,0,1,0,0)"
font-family="Noto Sans" font-size="10" font-weight="400" font-style="normal" 
>
</g>
</g>
</svg>
